<?xml version="1.0" encoding="UTF-8"?>
<svg xmlns="http://www.w3.org/2000/svg" xmlns:xlink="http://www.w3.org/1999/xlink" width="32pt" height="32pt" viewBox="0 0 32 32" version="1.1">
<g id="surface8412574">
<path style=" stroke:none;fill-rule:nonzero;fill:rgb(10.196078%,73.72549%,61.176471%);fill-opacity:1;" d="M 10 4 C 8.355469 4 7 5.355469 7 7 L 7 21 L 4 21 L 4 25 C 4 26.644531 5.355469 28 7 28 L 21.03125 28 C 22.660156 27.984375 24 26.632812 24 25 L 24 11 L 28 11 L 28 7 C 28 5.355469 26.644531 4 25 4 Z M 10 6 L 22.1875 6 C 22.074219 6.316406 22 6.648438 22 7 L 22 25 C 22 25.566406 21.566406 26 21 26 C 20.4375 26.007812 20.007812 25.5625 20 25 L 19.96875 21 L 9 21 L 9 7 C 9 6.433594 9.433594 6 10 6 Z M 25 6 C 25.566406 6 26 6.433594 26 7 L 26 9 L 24 9 L 24 7 C 24 6.433594 24.433594 6 25 6 Z M 6 23 L 18 23 L 18 25.03125 C 18.003906 25.375 18.074219 25.691406 18.1875 26 L 7 26 C 6.433594 26 6 25.566406 6 25 Z M 6 23 "/>
</g>
</svg>
