<?xml version="1.0" encoding="UTF-8"?>
<svg xmlns="http://www.w3.org/2000/svg" xmlns:xlink="http://www.w3.org/1999/xlink" width="32pt" height="32pt" viewBox="0 0 32 32" version="1.1">
<g id="surface8409899">
<path style=" stroke:none;fill-rule:nonzero;fill:rgb(60.784314%,34.901961%,71.372549%);fill-opacity:1;" d="M 21 3 C 16.570312 3 13 6.570312 13 11 C 13 11.234375 13.035156 11.554688 13.0625 11.84375 L 4.5 20.40625 C 2.53125 22.375 2.53125 25.53125 4.5 27.5 C 6.46875 29.46875 9.625 29.46875 11.59375 27.5 L 20.15625 18.9375 C 20.445312 18.964844 20.765625 19 21 19 C 25.429688 19 29 15.429688 29 11 C 29 9.632812 28.648438 8.367188 28.0625 7.3125 L 27.4375 6.15625 L 26.5 7.09375 L 22.1875 11.375 L 20.625 9.8125 L 24.90625 5.5 L 25.84375 4.5625 L 24.6875 3.9375 C 23.632812 3.351562 22.367188 3 21 3 Z M 21 5 C 21.484375 5 21.847656 5.207031 22.28125 5.3125 L 17.78125 9.8125 L 18.5 10.5 L 21.5 13.5 L 22.1875 14.21875 L 26.6875 9.71875 C 26.792969 10.152344 27 10.515625 27 11 C 27 14.371094 24.371094 17 21 17 C 20.601562 17 20.277344 17 20.03125 16.9375 L 19.5 16.78125 L 10.1875 26.09375 C 8.957031 27.324219 7.136719 27.324219 5.90625 26.09375 L 5.875 26.0625 C 4.675781 24.832031 4.683594 23.035156 5.90625 21.8125 L 15.21875 12.5 L 15.0625 11.96875 C 15 11.722656 15 11.398438 15 11 C 15 7.628906 17.628906 5 21 5 Z M 21 5 "/>
</g>
</svg>
