<?xml version="1.0" encoding="UTF-8"?>
<svg xmlns="http://www.w3.org/2000/svg" xmlns:xlink="http://www.w3.org/1999/xlink" width="32pt" height="32pt" viewBox="0 0 32 32" version="1.1">
<g id="surface8409550">
<path style=" stroke:none;fill-rule:nonzero;fill:rgb(20.392157%,59.607843%,85.882353%);fill-opacity:1;" d="M 23 5 C 20.800781 5 19 6.800781 19 9 C 19 9.777344 19.234375 10.5 19.625 11.117188 L 16.519531 15 L 11.855469 15 C 11.40625 13.285156 9.851562 12 8 12 C 5.800781 12 4 13.800781 4 16 C 4 18.199219 5.800781 20 8 20 C 9.851562 20 11.40625 18.714844 11.855469 17 L 16.519531 17 L 19.625 20.882812 C 19.234375 21.5 19 22.222656 19 23 C 19 25.199219 20.800781 27 23 27 C 25.199219 27 27 25.199219 27 23 C 27 20.800781 25.199219 19 23 19 C 22.304688 19 21.660156 19.195312 21.089844 19.511719 L 18.28125 16 L 21.089844 12.488281 C 21.660156 12.804688 22.304688 13 23 13 C 25.199219 13 27 11.199219 27 9 C 27 6.800781 25.199219 5 23 5 Z M 23 7 C 24.117188 7 25 7.882812 25 9 C 25 10.117188 24.117188 11 23 11 C 21.882812 11 21 10.117188 21 9 C 21 7.882812 21.882812 7 23 7 Z M 8 14 C 9.117188 14 10 14.882812 10 16 C 10 17.117188 9.117188 18 8 18 C 6.882812 18 6 17.117188 6 16 C 6 14.882812 6.882812 14 8 14 Z M 23 21 C 24.117188 21 25 21.882812 25 23 C 25 24.117188 24.117188 25 23 25 C 21.882812 25 21 24.117188 21 23 C 21 21.882812 21.882812 21 23 21 Z M 23 21 "/>
</g>
</svg>
